<svg xmlns="http://www.w3.org/2000/svg" width="202" height="32" viewBox="0 0 202 32" fill="none">
  <rect y="0.5" width="98" height="31" fill="#ED1D24"/>
  <path d="M4.33606 26.5001V6.90007H8.81606L10.4401 16.9801L12.0361 6.90007H16.6001V26.5281H12.9601V17.0641L11.3641 26.5001H9.48806L7.89206 17.1481V26.5001H4.33606Z" fill="#FAFAFA"/>
  <path d="M24.4989 6.90007L27.4669 26.5001H23.9109L23.5189 23.4761H20.7749L20.3549 26.5001H16.8549L19.7949 6.90007H24.4989ZM23.1549 20.3401L22.1469 12.1081L21.1949 20.3401H23.1549Z" fill="#FAFAFA"/>
  <path d="M31.6116 6.90007C32.2649 6.90007 32.8809 7.00274 33.4596 7.20807C34.0569 7.4134 34.5889 7.74007 35.0556 8.18807C35.5222 8.6174 35.9049 9.1774 36.2036 9.86807C36.5209 10.5587 36.7262 11.3987 36.8196 12.3881C36.9502 13.6014 36.9129 14.6187 36.7076 15.4401C36.5209 16.2427 36.2876 16.8867 36.0076 17.3721C35.6902 17.9694 35.3076 18.4361 34.8596 18.7721L37.1836 26.5001H33.5996L31.8916 19.9201L31.1076 20.0601V26.5001H27.5796L27.6076 6.90007H31.6116ZM31.1076 16.5881C31.5369 16.5507 31.8916 16.4481 32.1716 16.2801C32.4516 16.0934 32.6849 15.8601 32.8716 15.5801C33.0582 15.3001 33.1889 14.9827 33.2636 14.6281C33.3382 14.2734 33.3756 13.9094 33.3756 13.5361C33.3756 13.1441 33.3382 12.7614 33.2636 12.3881C33.1889 11.9961 33.0676 11.6507 32.8996 11.3521C32.7316 11.0347 32.4982 10.7827 32.1996 10.5961C31.9196 10.4094 31.5556 10.3161 31.1076 10.3161V16.5881Z" fill="#FAFAFA"/>
  <path d="M39.8635 6.90007L41.4315 18.7161L43.0835 6.90007H46.6115L43.5035 26.5001H39.3595L36.2235 6.90007H39.8635Z" fill="#FAFAFA"/>
  <path d="M46.8328 26.5001V6.90007H53.4128V10.3721H50.4448V14.7961H53.4408V18.4361H50.2768V22.8601H53.4688V26.5001H46.8328Z" fill="#FAFAFA"/>
  <path d="M58.0412 6.87207V22.9721H61.0652V26.5281H54.5692V6.90007L58.0412 6.87207Z" fill="#FAFAFA"/>
  <path d="M61.9253 16.7001C61.9253 15.2254 62.0559 13.8907 62.3173 12.6961C62.5786 11.4827 62.9426 10.4467 63.4093 9.58807C63.8759 8.7294 64.4453 8.06674 65.1173 7.60007C65.7893 7.1334 66.5266 6.90007 67.3293 6.90007C68.1319 6.90007 68.8599 7.1334 69.5133 7.60007C70.1853 8.06674 70.7546 8.7294 71.2213 9.58807C71.688 10.4467 72.0519 11.4827 72.3133 12.6961C72.5746 13.8907 72.7053 15.2254 72.7053 16.7001C72.7053 18.1747 72.5746 19.5187 72.3133 20.7321C72.0519 21.9267 71.688 22.9534 71.2213 23.8121C70.7546 24.6707 70.1853 25.3334 69.5133 25.8001C68.8599 26.2667 68.1319 26.5001 67.3293 26.5001C66.5266 26.5001 65.7893 26.2667 65.1173 25.8001C64.4453 25.3334 63.8759 24.6707 63.4093 23.8121C62.9426 22.9534 62.5786 21.9267 62.3173 20.7321C62.0559 19.5187 61.9253 18.1747 61.9253 16.7001ZM65.3973 16.7561C65.3973 17.6894 65.4439 18.5387 65.5373 19.3041C65.6306 20.0694 65.7613 20.7321 65.9293 21.2921C66.0973 21.8334 66.2933 22.2534 66.5173 22.5521C66.7599 22.8507 67.0213 23.0001 67.3013 23.0001C67.5813 23.0001 67.8333 22.8507 68.0573 22.5521C68.2999 22.2534 68.4959 21.8334 68.6453 21.2921C68.8133 20.7321 68.9439 20.0694 69.0373 19.3041C69.1306 18.5387 69.1773 17.6894 69.1773 16.7561C69.1773 15.8227 69.1306 14.9734 69.0373 14.2081C68.9439 13.4241 68.8133 12.7614 68.6453 12.2201C68.4959 11.6787 68.2999 11.2587 68.0573 10.9601C67.8333 10.6614 67.5813 10.5121 67.3013 10.5121C67.0213 10.5121 66.7599 10.6614 66.5173 10.9601C66.2933 11.2587 66.0973 11.6787 65.9293 12.2201C65.7613 12.7614 65.6306 13.4241 65.5373 14.2081C65.4439 14.9734 65.3973 15.8227 65.3973 16.7561Z" fill="#FAFAFA"/>
  <path d="M84.2411 16.8121C84.2411 17.4654 84.2317 18.1654 84.2131 18.9121C84.2131 19.6401 84.1664 20.3681 84.0731 21.0961C83.9984 21.8054 83.8584 22.4867 83.6531 23.1401C83.4477 23.7934 83.1397 24.3721 82.7291 24.8761C82.3371 25.3614 81.8237 25.7534 81.1891 26.0521C80.5544 26.3507 79.7704 26.5001 78.8371 26.5001C77.5491 26.5001 76.5411 26.2761 75.8131 25.8281C75.1037 25.3801 74.5717 24.7454 74.2171 23.9241C73.8811 23.0841 73.6757 22.0761 73.6011 20.9001C73.5451 19.7241 73.5171 18.4174 73.5171 16.9801V6.87207H76.9611V16.8121C76.9797 17.9694 77.0544 18.9961 77.1851 19.8921C77.2411 20.2841 77.3157 20.6667 77.4091 21.0401C77.5024 21.3947 77.6144 21.7214 77.7451 22.0201C77.8944 22.3001 78.0531 22.5334 78.2211 22.7201C78.4077 22.8881 78.6131 22.9721 78.8371 22.9721C79.1171 22.9721 79.3504 22.8881 79.5371 22.7201C79.7424 22.5334 79.9104 22.3001 80.0411 22.0201C80.1904 21.7214 80.3024 21.3947 80.3771 21.0401C80.4704 20.6667 80.5451 20.2841 80.6011 19.8921C80.7131 18.9961 80.7597 17.9694 80.7411 16.8121V6.90007H84.2411V16.8121Z" fill="#FAFAFA"/>
  <path d="M93.1761 6.90007C93.1948 6.90007 93.2041 7.08674 93.2041 7.46007C93.2041 7.81474 93.2041 8.20674 93.2041 8.63607C93.2041 9.15874 93.1948 9.74674 93.1761 10.4001C92.5975 10.4001 92.0095 10.4561 91.4121 10.5681C90.8335 10.6614 90.3108 10.8201 89.8441 11.0441C89.3961 11.2494 89.0228 11.5014 88.7241 11.8001C88.4441 12.0987 88.3041 12.4441 88.3041 12.8361C88.3041 13.1721 88.4255 13.4614 88.6681 13.7041C88.9295 13.9467 89.2375 14.1894 89.5921 14.4321C89.9655 14.6747 90.3668 14.9454 90.7961 15.2441C91.2441 15.5241 91.6455 15.8601 92.0001 16.2521C92.3735 16.6441 92.6815 17.1201 92.9241 17.6801C93.1855 18.2401 93.3161 18.9214 93.3161 19.7241C93.3161 20.9187 93.0921 21.9454 92.6441 22.8041C92.2148 23.6441 91.6175 24.3441 90.8521 24.9041C90.1055 25.4454 89.2281 25.8467 88.2201 26.1081C87.2121 26.3694 86.1481 26.5001 85.0281 26.5001V23.0001C85.3641 23.0001 85.8028 22.9441 86.3441 22.8321C86.8855 22.7201 87.4081 22.5334 87.9121 22.2721C88.4348 22.0107 88.8828 21.6654 89.2561 21.2361C89.6295 20.8067 89.8068 20.2747 89.7881 19.6401C89.7881 19.3227 89.6668 19.0521 89.4241 18.8281C89.1815 18.5854 88.8735 18.3521 88.5001 18.1281C88.1455 17.8854 87.7628 17.6334 87.3521 17.3721C86.9415 17.0921 86.5495 16.7561 86.1761 16.3641C85.8215 15.9534 85.5228 15.4681 85.2801 14.9081C85.0561 14.3481 84.9441 13.6574 84.9441 12.8361C84.9441 11.9774 85.1868 11.1841 85.6721 10.4561C86.1761 9.72807 86.8201 9.10274 87.6041 8.58007C88.3881 8.0574 89.2655 7.64674 90.2361 7.34807C91.2255 7.0494 92.2055 6.90007 93.1761 6.90007Z" fill="#FAFAFA"/>
  <path d="M109.784 6.90007L112.752 26.5001H109.196L108.804 23.4761H106.06L105.64 26.5001H102.14L105.08 6.90007H109.784ZM108.44 20.3401L107.432 12.1081L106.48 20.3401H108.44Z" fill="#FAFAFA"/>
  <path d="M116.197 6.87207C117.093 6.87207 117.867 7.04007 118.521 7.37607C119.174 7.71207 119.734 8.16007 120.201 8.72007C120.667 9.28007 121.05 9.9334 121.349 10.6801C121.647 11.4081 121.881 12.1641 122.049 12.9481C122.217 13.7321 122.329 14.5254 122.385 15.3281C122.459 16.1121 122.497 16.8401 122.497 17.5121C122.497 19.0054 122.338 20.2654 122.021 21.2921C121.722 22.3187 121.33 23.1587 120.845 23.8121C120.378 24.4654 119.883 24.9787 119.361 25.3521C118.427 26.0054 117.373 26.3787 116.197 26.4721H112.753L112.809 6.87207H116.197ZM116.253 23.5041C116.253 23.5041 116.318 23.4947 116.449 23.4761C116.579 23.4574 116.747 23.3921 116.953 23.2801C117.177 23.1494 117.41 22.9534 117.653 22.6921C117.914 22.4307 118.147 22.0574 118.353 21.5721C118.577 21.0867 118.754 20.4801 118.885 19.7521C119.034 19.0054 119.109 18.0907 119.109 17.0081C119.109 16.7281 119.099 16.3641 119.081 15.9161C119.062 15.4681 119.015 14.9921 118.941 14.4881C118.885 13.9841 118.791 13.4801 118.661 12.9761C118.53 12.4721 118.353 12.0147 118.129 11.6041C117.923 11.1934 117.662 10.8667 117.345 10.6241C117.027 10.3627 116.645 10.2321 116.197 10.2321L116.253 23.5041Z" fill="#FAFAFA"/>
  <path d="M127.035 6.90007L128.603 18.7161L130.255 6.90007H133.783L130.675 26.5001H126.531L123.395 6.90007H127.035Z" fill="#FAFAFA"/>
  <path d="M134.005 26.5001V6.90007H140.585V10.3721H137.617V14.7961H140.613V18.4361H137.449V22.8601H140.641V26.5001H134.005Z" fill="#FAFAFA"/>
  <path d="M141.713 26.5001V6.90007H145.213L148.209 17.0361V6.90007H151.793V26.5001H148.209L145.185 17.1481V26.5281L141.713 26.5001Z" fill="#FAFAFA"/>
  <path d="M163.6 6.90007V10.4561H160.072V26.5001H156.628V10.4561H152.848V6.90007H163.6Z" fill="#FAFAFA"/>
  <path d="M175.788 16.8121C175.788 17.4654 175.779 18.1654 175.76 18.9121C175.76 19.6401 175.713 20.3681 175.62 21.0961C175.545 21.8054 175.405 22.4867 175.2 23.1401C174.995 23.7934 174.687 24.3721 174.276 24.8761C173.884 25.3614 173.371 25.7534 172.736 26.0521C172.101 26.3507 171.317 26.5001 170.384 26.5001C169.096 26.5001 168.088 26.2761 167.36 25.8281C166.651 25.3801 166.119 24.7454 165.764 23.9241C165.428 23.0841 165.223 22.0761 165.148 20.9001C165.092 19.7241 165.064 18.4174 165.064 16.9801V6.87207H168.508V16.8121C168.527 17.9694 168.601 18.9961 168.732 19.8921C168.788 20.2841 168.863 20.6667 168.956 21.0401C169.049 21.3947 169.161 21.7214 169.292 22.0201C169.441 22.3001 169.6 22.5334 169.768 22.7201C169.955 22.8881 170.16 22.9721 170.384 22.9721C170.664 22.9721 170.897 22.8881 171.084 22.7201C171.289 22.5334 171.457 22.3001 171.588 22.0201C171.737 21.7214 171.849 21.3947 171.924 21.0401C172.017 20.6667 172.092 20.2841 172.148 19.8921C172.26 18.9961 172.307 17.9694 172.288 16.8121V6.90007H175.788V16.8121Z" fill="#FAFAFA"/>
  <path d="M180.635 6.90007C181.288 6.90007 181.904 7.00274 182.483 7.20807C183.08 7.4134 183.612 7.74007 184.079 8.18807C184.546 8.6174 184.928 9.1774 185.227 9.86807C185.544 10.5587 185.75 11.3987 185.843 12.3881C185.974 13.6014 185.936 14.6187 185.731 15.4401C185.544 16.2427 185.311 16.8867 185.031 17.3721C184.714 17.9694 184.331 18.4361 183.883 18.7721L186.207 26.5001H182.623L180.915 19.9201L180.131 20.0601V26.5001H176.603L176.631 6.90007H180.635ZM180.131 16.5881C180.56 16.5507 180.915 16.4481 181.195 16.2801C181.475 16.0934 181.708 15.8601 181.895 15.5801C182.082 15.3001 182.212 14.9827 182.287 14.6281C182.362 14.2734 182.399 13.9094 182.399 13.5361C182.399 13.1441 182.362 12.7614 182.287 12.3881C182.212 11.9961 182.091 11.6507 181.923 11.3521C181.755 11.0347 181.522 10.7827 181.223 10.5961C180.943 10.4094 180.579 10.3161 180.131 10.3161V16.5881Z" fill="#FAFAFA"/>
  <path d="M185.247 26.5001V6.90007H191.827V10.3721H188.859V14.7961H191.855V18.4361H188.691V22.8601H191.883V26.5001H185.247Z" fill="#FAFAFA"/>
  <path d="M201.047 6.90007C201.066 6.90007 201.075 7.08674 201.075 7.46007C201.075 7.81474 201.075 8.20674 201.075 8.63607C201.075 9.15874 201.066 9.74674 201.047 10.4001C200.469 10.4001 199.881 10.4561 199.283 10.5681C198.705 10.6614 198.182 10.8201 197.715 11.0441C197.267 11.2494 196.894 11.5014 196.595 11.8001C196.315 12.0987 196.175 12.4441 196.175 12.8361C196.175 13.1721 196.297 13.4614 196.539 13.7041C196.8 13.9467 197.109 14.1894 197.463 14.4321C197.837 14.6747 198.238 14.9454 198.667 15.2441C199.115 15.5241 199.517 15.8601 199.871 16.2521C200.245 16.6441 200.553 17.1201 200.795 17.6801C201.057 18.2401 201.187 18.9214 201.187 19.7241C201.187 20.9187 200.963 21.9454 200.515 22.8041C200.086 23.6441 199.489 24.3441 198.723 24.9041C197.977 25.4454 197.099 25.8467 196.091 26.1081C195.083 26.3694 194.019 26.5001 192.899 26.5001V23.0001C193.235 23.0001 193.674 22.9441 194.215 22.8321C194.757 22.7201 195.279 22.5334 195.783 22.2721C196.306 22.0107 196.754 21.6654 197.127 21.2361C197.501 20.8067 197.678 20.2747 197.659 19.6401C197.659 19.3227 197.538 19.0521 197.295 18.8281C197.053 18.5854 196.745 18.3521 196.371 18.1281C196.017 17.8854 195.634 17.6334 195.223 17.3721C194.813 17.0921 194.421 16.7561 194.047 16.3641C193.693 15.9534 193.394 15.4681 193.151 14.9081C192.927 14.3481 192.815 13.6574 192.815 12.8361C192.815 11.9774 193.058 11.1841 193.543 10.4561C194.047 9.72807 194.691 9.10274 195.475 8.58007C196.259 8.0574 197.137 7.64674 198.107 7.34807C199.097 7.0494 200.077 6.90007 201.047 6.90007Z" fill="#FAFAFA"/>
  <path d="M104 1.5H200" stroke="#FAFAFA"/>
  <path d="M104 31.5H200" stroke="#FAFAFA"/>
</svg>